<?xml version="1.0" encoding="utf-8"?>
<!-- Generator: Adobe Illustrator 15.0.0, SVG Export Plug-In . SVG Version: 6.00 Build 0)  -->
<!DOCTYPE svg PUBLIC "-//W3C//DTD SVG 1.1//EN" "http://www.w3.org/Graphics/SVG/1.1/DTD/svg11.dtd">
<svg version="1.1" id="Layer_1" xmlns="http://www.w3.org/2000/svg" xmlns:xlink="http://www.w3.org/1999/xlink" x="0px" y="0px"
	 width="20px" height="20px" viewBox="0 0 20 20" enable-background="new 0 0 20 20" xml:space="preserve">
<path id="Facebook__x28_alt_x29__3_" fill="#FFFFFF" d="M19.887,3.333C19.887,1.582,18.314,0,16.573,0H3.315
	C1.573,0,0,1.582,0,3.333v13.333C0,18.418,1.573,20,3.315,20h6.628v-7.556h-2.43V9.111h2.43V7.812c0-2.24,1.673-4.257,3.729-4.257
	h2.68v3.333h-2.68c-0.293,0-0.635,0.358-0.635,0.894v1.328h3.314v3.333h-3.314V20h3.536c1.741,0,3.313-1.582,3.313-3.334V3.333z"/>
</svg>
