<?xml version="1.0" encoding="utf-8"?>
<!-- Generator: Adobe Illustrator 15.0.0, SVG Export Plug-In . SVG Version: 6.00 Build 0)  -->
<!DOCTYPE svg PUBLIC "-//W3C//DTD SVG 1.1//EN" "http://www.w3.org/Graphics/SVG/1.1/DTD/svg11.dtd">
<svg version="1.1" id="Layer_1" xmlns="http://www.w3.org/2000/svg" xmlns:xlink="http://www.w3.org/1999/xlink" x="0px" y="0px"
	 width="20px" height="20px" viewBox="0 0 20 20" enable-background="new 0 0 20 20" xml:space="preserve">
<path id="Google_3_" fill="#FFFFFF" d="M16.064,0h-5.388c-1.412,0-3.19,0.208-4.68,1.436C4.871,2.402,4.323,3.734,4.323,4.937
	c0,2.037,1.568,4.102,4.341,4.102c0.262,0,0.548-0.026,0.838-0.052C9.37,9.299,9.238,9.561,9.238,10.005
	c0,0.811,0.419,1.305,0.785,1.777c-1.176,0.077-3.373,0.208-4.995,1.2c-1.542,0.916-2.015,2.248-2.015,3.188
	c0,1.933,1.831,3.737,5.624,3.737c4.498,0,6.878-2.482,6.878-4.939c0-1.801-1.046-2.691-2.196-3.658l-0.942-0.73
	c-0.286-0.235-0.678-0.548-0.678-1.124c0-0.575,0.392-0.94,0.73-1.28c1.098-0.862,2.196-1.777,2.196-3.71
	c0-1.986-1.256-3.031-1.856-3.527h1.623L16.064,0z M13.765,15.988c0,1.619-1.335,2.82-3.846,2.82c-2.798,0-4.604-1.332-4.604-3.187
	c0-1.855,1.675-2.481,2.25-2.69c1.099-0.365,2.511-0.418,2.746-0.418c0.261,0,0.393,0,0.602,0.025
	C12.902,13.95,13.765,14.656,13.765,15.988z M11.672,7.576c-0.418,0.417-1.126,0.731-1.779,0.731c-2.249,0-3.268-2.901-3.268-4.65
	c0-0.68,0.13-1.384,0.573-1.933c0.42-0.523,1.151-0.863,1.831-0.863c2.17,0,3.297,2.926,3.297,4.806
	C12.326,6.139,12.273,6.974,11.672,7.576z"/>
</svg>
