<?xml version="1.0" encoding="utf-8"?>
<!-- Generator: Adobe Illustrator 15.0.0, SVG Export Plug-In . SVG Version: 6.00 Build 0)  -->
<!DOCTYPE svg PUBLIC "-//W3C//DTD SVG 1.1//EN" "http://www.w3.org/Graphics/SVG/1.1/DTD/svg11.dtd">
<svg version="1.1" id="Layer_1" xmlns="http://www.w3.org/2000/svg" xmlns:xlink="http://www.w3.org/1999/xlink" x="0px" y="0px"
	 width="20px" height="20px" viewBox="0 0 20 20" enable-background="new 0 0 20 20" xml:space="preserve">
<path fill="#FFFFFF" d="M17.517,0H2.362C1.059,0,0,1.056,0,2.357v15.165c0,1.301,1.059,2.358,2.362,2.358h15.154
	c1.305,0,2.363-1.058,2.363-2.358V2.357C19.88,1.056,18.821,0,17.517,0z M13.809,2.82c0-0.308,0.25-0.556,0.557-0.556h2.688
	c0.309,0,0.556,0.248,0.556,0.556v2.682c0,0.306-0.247,0.554-0.556,0.554h-2.688c-0.307,0-0.557-0.248-0.557-0.554V2.82z
	 M9.964,6.148c2.11,0,3.822,1.709,3.822,3.814c0,2.108-1.712,3.815-3.822,3.815c-2.111,0-3.824-1.707-3.824-3.815
	C6.14,7.857,7.853,6.148,9.964,6.148z M17.654,17.013c0,0.307-0.247,0.555-0.555,0.555H2.826c-0.307,0-0.555-0.248-0.555-0.555
	V8.369h1.86c-0.14,0.507-0.216,1.043-0.216,1.594c0,3.327,2.714,6.034,6.049,6.034c3.333,0,6.046-2.707,6.046-6.034
	c0-0.551-0.075-1.086-0.215-1.594h1.859V17.013z"/>
</svg>
